<?xml version="1.0" encoding="UTF-8"?>
<!-- Generator: Adobe Illustrator 14.0.0, SVG Export Plug-In . SVG Version: 6.00 Build 43363)  -->
<!DOCTYPE svg PUBLIC "-//W3C//DTD SVG 1.1//EN" "http://www.w3.org/Graphics/SVG/1.1/DTD/svg11.dtd">
<svg version="1.1" id="Layer_1" xmlns="http://www.w3.org/2000/svg" xmlns:xlink="http://www.w3.org/1999/xlink" x="0px" y="0px" width="100%" height="100%" viewBox="0 0 81.368 81.368" enable-background="new 0 0 333.5 83.613" xml:space="preserve">
<g>
	<polygon fill="#3BB9C6" points="0.023,-0.038 0.023,70.36 43.284,27.312 43.284,-0.038  "/>
	<rect x="51.462" y="-0.038" fill="#9D9FA2" width="29.887" height="81.406"/>
	<polygon fill="#9D9FA2" points="0.023,81.368 43.284,81.368 43.284,38.322  "/>
	<g>
		<path fill="#FFFFFF" d="M34.689,14.232c2.606,0,4.719-2.113,4.719-4.718c0-2.606-2.112-4.72-4.719-4.72    c-2.606,0-4.718,2.113-4.718,4.72C29.971,12.119,32.083,14.232,34.689,14.232"/>
		<path fill="#FFFFFF" d="M59.72,29.042c2.607,0,4.719-2.111,4.719-4.718c0-2.605-2.112-4.721-4.719-4.721    c-2.606,0-4.718,2.115-4.718,4.721C55.002,26.931,57.114,29.042,59.72,29.042"/>
		<path fill="#FFFFFF" d="M34.688,64.933c2.606,0,4.72-2.113,4.72-4.717c0-2.607-2.113-4.723-4.72-4.723s-4.718,2.115-4.718,4.723    C29.969,62.819,32.081,64.933,34.688,64.933"/>
	</g>
</g>
</svg>
