<?xml version="1.0" encoding="UTF-8"?>
<!-- Generator: Adobe Illustrator 14.0.0, SVG Export Plug-In . SVG Version: 6.00 Build 43363)  -->
<!DOCTYPE svg PUBLIC "-//W3C//DTD SVG 1.1//EN" "http://www.w3.org/Graphics/SVG/1.1/DTD/svg11.dtd">
<svg version="1.1" id="Layer_1" xmlns="http://www.w3.org/2000/svg" xmlns:xlink="http://www.w3.org/1999/xlink" x="0px" y="0px" width="100%" height="100%" viewBox="-2.5 -2.5 300 86.113" enable-background="new 0 0 333.5 83.613" xml:space="preserve">
<g>
	<polygon fill="#fff" stroke="#fff" stroke-width="5" points="0.023,-0.038 81.349,-0.038 81.349,81.368 0.023,81.368" />
	<polygon fill="#3BB9C6" points="0.023,-0.038 0.023,70.36 43.284,27.312 43.284,-0.038  "/>
	<rect x="51.462" y="-0.038" fill="#9D9FA2" width="29.887" height="81.406"/>
	<polygon fill="#9D9FA2" points="0.023,81.368 43.284,81.368 43.284,38.322  "/>
	<g>
		<path fill="#FFFFFF" d="M34.689,14.232c2.606,0,4.719-2.113,4.719-4.718c0-2.606-2.112-4.72-4.719-4.72    c-2.606,0-4.718,2.113-4.718,4.72C29.971,12.119,32.083,14.232,34.689,14.232"/>
		<path fill="#FFFFFF" d="M59.72,29.042c2.607,0,4.719-2.111,4.719-4.718c0-2.605-2.112-4.721-4.719-4.721    c-2.606,0-4.718,2.115-4.718,4.721C55.002,26.931,57.114,29.042,59.72,29.042"/>
		<path fill="#FFFFFF" d="M34.688,64.933c2.606,0,4.72-2.113,4.72-4.717c0-2.607-2.113-4.723-4.72-4.723s-4.718,2.115-4.718,4.723    C29.969,62.819,32.081,64.933,34.688,64.933"/>
		<g>
			<path fill="#000" d="M91.975,0.48h1.709V8.27h10.654V0.48h1.708v17.941h-1.708V9.728H93.684v8.694h-1.709V0.48z"/>
			<path fill="#000" d="M109.74,6.063c0.352-1.085,0.88-2.042,1.583-2.87c0.703-0.828,1.587-1.486,2.651-1.977     c1.063-0.49,2.299-0.736,3.706-0.736c1.407,0,2.639,0.246,3.694,0.736c1.056,0.49,1.935,1.148,2.639,1.977     s1.231,1.785,1.583,2.87c0.352,1.085,0.528,2.214,0.528,3.388s-0.176,2.303-0.528,3.389c-0.352,1.085-0.879,2.041-1.583,2.869     s-1.583,1.487-2.639,1.978c-1.055,0.49-2.287,0.735-3.694,0.735c-1.407,0-2.643-0.245-3.706-0.735     c-1.064-0.49-1.948-1.149-2.651-1.978c-0.704-0.828-1.231-1.784-1.583-2.869c-0.352-1.086-0.527-2.215-0.527-3.389     S109.389,7.148,109.74,6.063z M111.311,12.203c0.259,0.893,0.662,1.694,1.206,2.404c0.544,0.71,1.244,1.28,2.098,1.711     c0.854,0.432,1.876,0.646,3.065,0.646c1.172,0,2.187-0.215,3.041-0.646c0.854-0.431,1.554-1.001,2.098-1.711     s0.946-1.512,1.207-2.404c0.259-0.893,0.389-1.811,0.389-2.752c0-0.925-0.13-1.838-0.389-2.74c-0.26-0.9-0.662-1.706-1.207-2.416     s-1.244-1.279-2.098-1.711c-0.854-0.431-1.868-0.646-3.041-0.646c-1.189,0-2.211,0.216-3.065,0.646     c-0.854,0.432-1.554,1.001-2.098,1.711c-0.544,0.71-0.947,1.516-1.206,2.416c-0.26,0.902-0.39,1.815-0.39,2.74     C110.921,10.393,111.051,11.311,111.311,12.203z"/>
			<path fill="#000" d="M142.381,6.285c-0.15-0.687-0.398-1.303-0.741-1.848c-0.343-0.543-0.762-1-1.256-1.369     c-0.494-0.367-1.039-0.648-1.633-0.842c-0.595-0.191-1.219-0.289-1.872-0.289c-1.189,0-2.211,0.216-3.065,0.646     c-0.854,0.432-1.554,1.001-2.098,1.711c-0.544,0.71-0.947,1.516-1.206,2.416c-0.26,0.902-0.39,1.815-0.39,2.74     c0,0.941,0.129,1.859,0.39,2.752c0.259,0.893,0.662,1.694,1.206,2.404c0.544,0.71,1.244,1.28,2.098,1.711     c0.854,0.432,1.876,0.646,3.065,0.646c0.821,0,1.571-0.151,2.249-0.453c0.679-0.301,1.26-0.711,1.747-1.23     c0.485-0.52,0.879-1.127,1.181-1.822c0.302-0.695,0.494-1.445,0.578-2.249h1.708c-0.117,1.106-0.377,2.103-0.779,2.99     s-0.921,1.646-1.558,2.274c-0.637,0.628-1.386,1.109-2.249,1.445c-0.863,0.334-1.822,0.502-2.877,0.502     c-1.407,0-2.643-0.245-3.706-0.735c-1.064-0.49-1.948-1.149-2.651-1.978s-1.231-1.784-1.583-2.869     c-0.352-1.086-0.527-2.215-0.527-3.389s0.176-2.303,0.527-3.388c0.352-1.085,0.879-2.042,1.583-2.87s1.587-1.486,2.651-1.977     c1.063-0.49,2.299-0.736,3.706-0.736c0.854,0,1.688,0.125,2.5,0.377c0.812,0.252,1.549,0.625,2.211,1.118     c0.662,0.495,1.214,1.102,1.659,1.821c0.443,0.721,0.724,1.551,0.842,2.488H142.381z"/>
			<path fill="#000" d="M147.457,0.48h1.709V8.27h10.654V0.48h1.708v17.941h-1.708V9.728h-10.654v8.694h-1.709V0.48z"/>
			<path fill="#000" d="M166.429,12.141c-0.018,0.921,0.125,1.691,0.428,2.311c0.301,0.621,0.716,1.115,1.243,1.482     c0.528,0.369,1.151,0.633,1.872,0.792s1.491,0.239,2.312,0.239c0.469,0,0.98-0.064,1.533-0.192s1.067-0.333,1.545-0.612     c0.478-0.281,0.876-0.641,1.194-1.082c0.317-0.44,0.477-0.973,0.477-1.598c0-0.48-0.112-0.896-0.339-1.25     c-0.226-0.352-0.52-0.648-0.879-0.889c-0.361-0.24-0.759-0.437-1.194-0.589s-0.862-0.276-1.281-0.372l-3.995-0.938     c-0.536-0.128-1.048-0.288-1.533-0.48c-0.485-0.191-0.913-0.448-1.281-0.77c-0.368-0.32-0.666-0.712-0.892-1.177     c-0.227-0.464-0.34-1.033-0.34-1.706c0-0.416,0.084-0.905,0.252-1.466c0.166-0.562,0.48-1.089,0.941-1.586     c0.461-0.496,1.094-0.917,1.897-1.262s1.835-0.517,3.091-0.517c0.888,0,1.733,0.117,2.538,0.352     c0.804,0.234,1.512,0.587,2.123,1.056c0.611,0.47,1.093,1.052,1.445,1.747c0.352,0.695,0.527,1.503,0.527,2.424h-1.709     c-0.033-0.687-0.185-1.285-0.452-1.797c-0.269-0.51-0.628-0.938-1.08-1.281c-0.453-0.343-0.968-0.603-1.546-0.779     c-0.578-0.176-1.186-0.264-1.821-0.264c-0.587,0-1.152,0.061-1.696,0.181c-0.545,0.12-1.022,0.313-1.433,0.577     c-0.41,0.264-0.741,0.612-0.992,1.045c-0.252,0.434-0.377,0.969-0.377,1.609c0,0.401,0.07,0.75,0.213,1.046     s0.34,0.544,0.591,0.745c0.251,0.199,0.54,0.368,0.867,0.504c0.327,0.137,0.675,0.244,1.043,0.324l4.372,1.033     c0.637,0.16,1.235,0.357,1.797,0.59c0.561,0.232,1.055,0.52,1.482,0.865c0.427,0.344,0.762,0.765,1.005,1.261     c0.243,0.497,0.364,1.098,0.364,1.802c0,0.193-0.021,0.449-0.063,0.77c-0.042,0.32-0.143,0.66-0.302,1.021     c-0.159,0.359-0.386,0.725-0.679,1.093s-0.695,0.705-1.206,1.009c-0.511,0.305-1.143,0.549-1.896,0.733s-1.659,0.276-2.714,0.276     c-1.056,0-2.035-0.121-2.94-0.364c-0.904-0.243-1.675-0.62-2.312-1.131s-1.127-1.164-1.471-1.96     c-0.343-0.795-0.489-1.738-0.439-2.826H166.429z"/>
			<path fill="#000" d="M195.074,6.285c-0.15-0.687-0.397-1.303-0.741-1.848c-0.344-0.543-0.763-1-1.256-1.369     c-0.495-0.367-1.039-0.648-1.634-0.842c-0.595-0.191-1.219-0.289-1.872-0.289c-1.189,0-2.211,0.216-3.065,0.646     c-0.854,0.432-1.554,1.001-2.099,1.711c-0.544,0.71-0.946,1.516-1.206,2.416c-0.26,0.902-0.39,1.815-0.39,2.74     c0,0.941,0.13,1.859,0.39,2.752s0.662,1.694,1.206,2.404c0.545,0.71,1.244,1.28,2.099,1.711c0.854,0.432,1.876,0.646,3.065,0.646     c0.82,0,1.57-0.151,2.249-0.453c0.679-0.301,1.261-0.711,1.746-1.23c0.486-0.52,0.88-1.127,1.182-1.822     c0.301-0.695,0.493-1.445,0.578-2.249h1.708c-0.117,1.106-0.377,2.103-0.778,2.99c-0.402,0.888-0.922,1.646-1.559,2.274     c-0.637,0.628-1.386,1.109-2.249,1.445c-0.862,0.334-1.821,0.502-2.877,0.502c-1.407,0-2.643-0.245-3.706-0.735     c-1.064-0.49-1.947-1.149-2.651-1.978c-0.703-0.828-1.231-1.784-1.583-2.869c-0.352-1.086-0.527-2.215-0.527-3.389     s0.176-2.303,0.527-3.388s0.88-2.042,1.583-2.87c0.704-0.828,1.587-1.486,2.651-1.977c1.063-0.49,2.299-0.736,3.706-0.736     c0.854,0,1.688,0.125,2.5,0.377s1.55,0.625,2.212,1.118c0.661,0.495,1.214,1.102,1.658,1.821     c0.443,0.721,0.725,1.551,0.842,2.488H195.074z"/>
			<path fill="#000" d="M200.15,0.48h1.708V8.27h10.654V0.48h1.709v17.941h-1.709V9.728h-10.654v8.694h-1.708V0.48z"/>
			<path fill="#000" d="M218.142,0.48h1.708v10.858c0,1.016,0.117,1.88,0.352,2.592s0.578,1.294,1.03,1.744     c0.453,0.45,1.006,0.778,1.659,0.982c0.653,0.205,1.39,0.308,2.211,0.308c0.82,0,1.562-0.103,2.224-0.308     c0.662-0.204,1.219-0.532,1.671-0.982s0.796-1.032,1.03-1.744s0.352-1.576,0.352-2.592V0.48h1.709v11.247     c0,0.903-0.13,1.761-0.39,2.572s-0.67,1.521-1.23,2.129c-0.562,0.606-1.282,1.091-2.161,1.452     c-0.88,0.361-1.947,0.541-3.204,0.541c-1.24,0-2.299-0.18-3.179-0.541s-1.6-0.846-2.161-1.452     c-0.562-0.607-0.972-1.317-1.231-2.129s-0.389-1.669-0.389-2.572V0.48z"/>
			<path fill="#000" d="M236.008,0.48h1.708v16.484h10.052v1.457h-11.76V0.48z"/>
			<path fill="#000" d="M250.004,0.48h12.388v1.457h-10.68v6.483h10.001v1.458h-10.001v7.086h10.806v1.457h-12.514V0.48z"/>
		</g>
	</g>
	<g>
		<path fill="#000" d="M92.385,25.27h1.709v9.455l10.428-9.455h2.312l-8.016,7.264l8.393,10.318H105l-7.463-9.283l-3.442,3.169    v6.114h-1.709V25.27z"/>
		<path fill="#000" d="M108.869,30.74c0.352-1.063,0.88-2.001,1.583-2.813c0.703-0.811,1.587-1.457,2.651-1.938    c1.063-0.48,2.299-0.721,3.706-0.721c1.407,0,2.639,0.24,3.694,0.721c1.056,0.48,1.935,1.127,2.639,1.938    c0.704,0.812,1.231,1.749,1.583,2.813c0.352,1.063,0.528,2.17,0.528,3.32s-0.176,2.257-0.528,3.32    c-0.352,1.063-0.879,2.001-1.583,2.813c-0.704,0.811-1.583,1.457-2.639,1.938c-1.055,0.48-2.287,0.721-3.694,0.721    c-1.407,0-2.643-0.24-3.706-0.721c-1.064-0.48-1.948-1.127-2.651-1.938c-0.704-0.812-1.231-1.749-1.583-2.813    c-0.352-1.063-0.527-2.17-0.527-3.32S108.518,31.804,108.869,30.74z M110.44,36.758c0.259,0.875,0.662,1.66,1.206,2.355    c0.544,0.695,1.244,1.255,2.098,1.677c0.854,0.423,1.876,0.633,3.065,0.633c1.172,0,2.187-0.21,3.041-0.633    c0.854-0.422,1.554-0.981,2.098-1.677s0.946-1.48,1.207-2.355c0.259-0.876,0.389-1.775,0.389-2.697    c0-0.906-0.13-1.802-0.389-2.686c-0.26-0.883-0.662-1.672-1.207-2.367c-0.544-0.696-1.244-1.255-2.098-1.678    c-0.854-0.422-1.868-0.633-3.041-0.633c-1.189,0-2.211,0.211-3.065,0.633c-0.854,0.423-1.554,0.981-2.098,1.678    c-0.544,0.695-0.947,1.484-1.206,2.367c-0.26,0.884-0.39,1.779-0.39,2.686C110.05,34.982,110.18,35.882,110.44,36.758z"/>
		<path fill="#000" d="M128.519,25.27h7.589c0.754,0,1.478,0.07,2.173,0.209c0.695,0.14,1.307,0.378,1.834,0.714    c0.528,0.337,0.951,0.78,1.269,1.33c0.318,0.55,0.478,1.235,0.478,2.056c0,0.46-0.076,0.908-0.227,1.342    c-0.15,0.436-0.364,0.83-0.641,1.183c-0.276,0.354-0.603,0.653-0.98,0.899s-0.8,0.418-1.269,0.517v0.05    c1.156,0.146,2.077,0.611,2.764,1.391c0.687,0.78,1.03,1.744,1.03,2.894c0,0.427-0.063,0.923-0.188,1.489    s-0.406,1.113-0.842,1.639s-1.081,0.969-1.935,1.329c-0.854,0.361-2.01,0.542-3.468,0.542h-7.589V25.27z M130.228,32.977h5.88    c0.687,0,1.281-0.078,1.784-0.234c0.502-0.155,0.921-0.369,1.256-0.64c0.335-0.271,0.586-0.587,0.754-0.948    c0.167-0.361,0.251-0.746,0.251-1.157c0-2.2-1.349-3.3-4.045-3.3h-5.88V32.977z M130.228,41.423h5.88    c0.636,0,1.239-0.053,1.809-0.159c0.569-0.107,1.072-0.3,1.508-0.579c0.436-0.278,0.779-0.653,1.03-1.12    c0.251-0.469,0.377-1.055,0.377-1.762c0-1.133-0.411-1.982-1.231-2.548c-0.821-0.566-1.985-0.85-3.493-0.85h-5.88V41.423z"/>
		<path fill="#000" d="M145.907,25.27h1.709v16.153h10.051v1.429h-11.76V25.27z"/>
		<path fill="#000" d="M160.028,25.27h12.389v1.428h-10.68v6.354h10.001v1.428h-10.001v6.944h10.806v1.429h-12.515V25.27z"/>
		<path fill="#000" d="M175.533,25.27h1.909l10.454,14.873h0.05V25.27h1.709v17.582h-1.91l-10.453-14.873h-0.05v14.873h-1.709    V25.27z"/>
		<path fill="#000" d="M192.996,25.27h12.916v1.477l-11.811,14.677h12.062v1.429h-13.971v-1.478l11.81-14.677h-11.006V25.27z"/>
	</g>
	<g>
		<path d="M92.586,57.476v-5.077h0.89v5.077c0,0.539,0.096,0.934,0.288,1.183c0.192,0.25,0.504,0.374,0.936,0.374    c0.458,0,0.782-0.135,0.971-0.404c0.175-0.235,0.263-0.62,0.263-1.152v-5.077h0.89v5.077c0,0.708-0.176,1.261-0.526,1.658    c-0.371,0.418-0.904,0.627-1.598,0.627C93.29,59.761,92.586,58.999,92.586,57.476z"/>
		<path d="M99.331,59.619v-7.221h1.16l2.4,6.027v-6.027h0.89v7.221h-1.23l-2.329-5.846v5.846H99.331z"/>
		<path d="M106.37,59.619v-7.221h0.89v7.221H106.37z"/>
		<path d="M110.991,59.619l-1.759-7.221h0.93l1.416,6.199h0.02l1.416-6.199h0.93l-1.82,7.221H110.991z"/>
		<path d="M115.926,59.619v-7.221h3.732v0.789h-2.842v2.265h2.68v0.789h-2.68v2.589h2.963v0.789H115.926z"/>
		<path d="M122.024,59.619v-7.221h2.336c0.573,0,1.024,0.16,1.355,0.48c0.33,0.32,0.496,0.764,0.496,1.33    c0,1.031-0.371,1.638-1.113,1.82v0.02c0.304,0.034,0.546,0.164,0.729,0.39c0.182,0.227,0.279,0.497,0.293,0.814l0.061,1.233    c0.027,0.613,0.155,0.991,0.384,1.133h-1.072c-0.128-0.128-0.209-0.476-0.243-1.042l-0.061-1.122    c-0.027-0.438-0.155-0.738-0.384-0.9c-0.148-0.101-0.378-0.151-0.688-0.151h-1.203v3.216H122.024z M122.914,53.127v2.548h0.88    c0.425,0,0.738-0.057,0.94-0.172c0.364-0.209,0.546-0.616,0.546-1.224c0-0.357-0.115-0.639-0.344-0.844    c-0.229-0.206-0.549-0.309-0.96-0.309H122.914z"/>
		<path d="M132.643,54.27h-0.89c0-0.856-0.375-1.284-1.123-1.284c-0.796,0-1.193,0.391-1.193,1.173c0,0.553,0.293,0.957,0.88,1.214    c0.546,0.209,1.095,0.418,1.648,0.627c0.586,0.337,0.88,0.876,0.88,1.618c0,0.762-0.247,1.328-0.738,1.698    c-0.398,0.297-0.9,0.445-1.507,0.445c-0.809,0-1.386-0.209-1.729-0.627c-0.303-0.371-0.455-0.964-0.455-1.78h0.89    c0,0.533,0.064,0.914,0.192,1.144c0.195,0.357,0.583,0.535,1.163,0.535c0.357,0,0.656-0.117,0.895-0.354s0.359-0.543,0.359-0.92    c0-0.553-0.293-0.965-0.88-1.234c-0.546-0.209-1.096-0.421-1.648-0.637c-0.586-0.344-0.88-0.891-0.88-1.639    c0-0.492,0.125-0.906,0.375-1.244c0.357-0.498,0.937-0.748,1.739-0.748C131.948,52.257,132.623,52.928,132.643,54.27z"/>
		<path d="M135.15,59.619v-7.221h0.89v7.221H135.15z"/>
		<path d="M140.824,53.188v6.432h-0.89v-6.432h-1.81v-0.789h4.521v0.789H140.824z"/>
		<path d="M146.032,56.787l-1.911-4.389h0.981l1.375,3.378l1.426-3.378h0.93l-1.911,4.389v2.832h-0.89V56.787z"/>
		<path d="M156.884,52.257c0.902,0,1.54,0.398,1.91,1.193c0.277,0.594,0.415,1.446,0.415,2.559s-0.138,1.966-0.415,2.559    c-0.37,0.796-1.008,1.193-1.91,1.193c-0.904,0-1.541-0.397-1.912-1.193c-0.276-0.593-0.414-1.446-0.414-2.559    s0.138-1.965,0.414-2.559C155.343,52.655,155.979,52.257,156.884,52.257z M156.884,52.985c-0.566,0-0.955,0.297-1.164,0.89    c-0.154,0.438-0.232,1.149-0.232,2.134s0.078,1.695,0.232,2.134c0.209,0.594,0.598,0.89,1.164,0.89s0.953-0.296,1.162-0.89    c0.155-0.438,0.232-1.149,0.232-2.134s-0.077-1.695-0.232-2.134C157.837,53.282,157.45,52.985,156.884,52.985z"/>
		<path d="M161.687,59.619v-7.221h3.732v0.789h-2.842v2.265h2.68v0.789h-2.68v3.378H161.687z"/>
		<path d="M170.394,59.619l2.083-7.221h1.193l1.942,7.221h-0.931l-0.516-1.982h-2.306l-0.536,1.982H170.394z M173.043,53.42    l-1.001,3.489h1.941l-0.92-3.489H173.043z"/>
		<path d="M177.523,59.619v-7.221h1.84c0.58,0,1.032,0.088,1.355,0.263c0.587,0.317,0.88,0.921,0.88,1.811    c0,0.661-0.19,1.175-0.571,1.542c-0.381,0.368-0.885,0.552-1.512,0.552h-1.103v3.054H177.523z M178.413,53.127v2.71h1.062    c0.344,0,0.629-0.119,0.854-0.359c0.227-0.239,0.339-0.588,0.339-1.046c0-0.87-0.418-1.305-1.254-1.305H178.413z"/>
		<path d="M183.804,59.619v-7.221h1.84c0.58,0,1.032,0.088,1.355,0.263c0.587,0.317,0.88,0.921,0.88,1.811    c0,0.661-0.19,1.175-0.571,1.542c-0.381,0.368-0.885,0.552-1.512,0.552h-1.103v3.054H183.804z M184.693,53.127v2.71h1.062    c0.344,0,0.629-0.119,0.854-0.359c0.227-0.239,0.339-0.588,0.339-1.046c0-0.87-0.418-1.305-1.254-1.305H184.693z"/>
		<path d="M190.084,59.619v-7.221h0.89v6.432h2.933v0.789H190.084z"/>
		<path d="M195.989,59.619v-7.221h0.89v7.221H195.989z"/>
		<path d="M199.468,59.619v-7.221h3.731v0.789h-2.842v2.265h2.68v0.789h-2.68v2.589h2.963v0.789H199.468z"/>
		<path d="M205.646,59.619v-7.221h1.932c1.024,0,1.726,0.354,2.104,1.062c0.283,0.52,0.425,1.369,0.425,2.549    c0,2.407-0.813,3.61-2.438,3.61H205.646z M206.536,53.127v5.764h0.931c0.688,0,1.166-0.316,1.436-0.95    c0.183-0.438,0.273-1.079,0.273-1.922c0-0.91-0.081-1.567-0.243-1.972c-0.256-0.613-0.745-0.92-1.466-0.92H206.536z"/>
	</g>
	<g>
		<path d="M216.556,58.547c0.395,0.253,0.962,0.445,1.568,0.445c0.9,0,1.427-0.476,1.427-1.164c0-0.627-0.364-1.001-1.285-1.345    c-1.112-0.405-1.801-0.992-1.801-1.942c0-1.063,0.88-1.852,2.205-1.852c0.688,0,1.204,0.162,1.498,0.334l-0.243,0.718    c-0.213-0.131-0.668-0.323-1.285-0.323c-0.931,0-1.284,0.556-1.284,1.021c0,0.638,0.414,0.951,1.355,1.315    c1.153,0.445,1.729,1.001,1.729,2.003c0,1.052-0.769,1.973-2.377,1.973c-0.657,0-1.376-0.202-1.74-0.445L216.556,58.547z"/>
	</g>
	<g>
		<path d="M226.449,57.142h0.931c-0.102,1.746-0.833,2.619-2.194,2.619c-0.924,0-1.567-0.397-1.932-1.193    c-0.263-0.573-0.395-1.426-0.395-2.559c0-1.112,0.138-1.965,0.415-2.559c0.37-0.795,1.008-1.193,1.911-1.193    c1.382,0,2.093,0.748,2.134,2.245h-0.931c-0.026-1.012-0.428-1.517-1.203-1.517c-0.566,0-0.954,0.297-1.163,0.89    c-0.155,0.438-0.232,1.149-0.232,2.134s0.077,1.695,0.232,2.134c0.209,0.594,0.597,0.89,1.163,0.89    c0.485,0,0.829-0.205,1.031-0.616C226.352,58.133,226.43,57.708,226.449,57.142z"/>
		<path d="M229.615,59.619v-7.221h0.89v7.221H229.615z"/>
		<path d="M233.094,59.619v-7.221h3.731v0.789h-2.842v2.265h2.68v0.789h-2.68v2.589h2.963v0.789H233.094z"/>
		<path d="M239.182,59.619v-7.221h1.159l2.4,6.027v-6.027h0.89v7.221h-1.23l-2.329-5.846v5.846H239.182z"/>
		<path d="M249.698,57.142h0.931c-0.102,1.746-0.833,2.619-2.194,2.619c-0.924,0-1.567-0.397-1.932-1.193    c-0.263-0.573-0.395-1.426-0.395-2.559c0-1.112,0.138-1.965,0.415-2.559c0.37-0.795,1.008-1.193,1.911-1.193    c1.382,0,2.093,0.748,2.134,2.245h-0.931c-0.026-1.012-0.428-1.517-1.203-1.517c-0.566,0-0.954,0.297-1.163,0.89    c-0.155,0.438-0.232,1.149-0.232,2.134s0.077,1.695,0.232,2.134c0.209,0.594,0.597,0.89,1.163,0.89    c0.485,0,0.829-0.205,1.031-0.616C249.601,58.133,249.679,57.708,249.698,57.142z"/>
		<path d="M252.875,59.619v-7.221h3.731v0.789h-2.842v2.265h2.68v0.789h-2.68v2.589h2.963v0.789H252.875z"/>
		<path d="M262.917,54.27h-0.891c0-0.856-0.374-1.284-1.122-1.284c-0.796,0-1.193,0.391-1.193,1.173c0,0.553,0.293,0.957,0.88,1.214    c0.546,0.209,1.096,0.418,1.648,0.627c0.586,0.337,0.88,0.876,0.88,1.618c0,0.762-0.246,1.328-0.738,1.698    c-0.398,0.297-0.9,0.445-1.507,0.445c-0.81,0-1.386-0.209-1.729-0.627c-0.304-0.371-0.455-0.964-0.455-1.78h0.89    c0,0.533,0.064,0.914,0.192,1.144c0.195,0.357,0.583,0.535,1.163,0.535c0.357,0,0.655-0.117,0.895-0.354s0.359-0.543,0.359-0.92    c0-0.553-0.293-0.965-0.88-1.234c-0.546-0.209-1.096-0.421-1.648-0.637c-0.586-0.344-0.88-0.891-0.88-1.639    c0-0.492,0.125-0.906,0.374-1.244c0.357-0.498,0.938-0.748,1.74-0.748C262.223,52.257,262.896,52.928,262.917,54.27z"/>
	</g>
	<g>
		<g>
			<path fill="#FFF" d="M111.012,70.091h5.897c0.49,0,0.932,0.078,1.325,0.234s0.73,0.369,1.011,0.641     c0.281,0.272,0.496,0.589,0.644,0.951s0.222,0.745,0.222,1.146c0,0.635-0.136,1.183-0.406,1.646     c-0.271,0.463-0.712,0.814-1.325,1.057v0.03c0.296,0.08,0.541,0.203,0.735,0.369c0.194,0.166,0.352,0.365,0.475,0.597     s0.212,0.48,0.268,0.747s0.094,0.535,0.115,0.807c0.01,0.172,0.021,0.373,0.031,0.604c0.01,0.232,0.028,0.466,0.054,0.702     s0.066,0.466,0.123,0.687c0.056,0.222,0.14,0.407,0.253,0.559h-2.405c-0.071-0.171-0.125-0.359-0.161-0.566     c-0.036-0.206-0.066-0.422-0.092-0.648c-0.026-0.227-0.046-0.458-0.062-0.694c-0.015-0.236-0.038-0.46-0.069-0.672     c-0.082-0.563-0.255-0.976-0.521-1.237c-0.266-0.262-0.7-0.393-1.302-0.393h-2.405v4.211h-2.405V70.091z M113.417,74.966h2.635     c0.541,0,0.952-0.121,1.233-0.362c0.281-0.241,0.421-0.634,0.421-1.178c0-0.522-0.141-0.902-0.421-1.139     c-0.281-0.236-0.692-0.355-1.233-0.355h-2.635V74.966z"/>
			<path fill="#FFF" d="M123.802,70.091h2.175v4.06h0.046c0.275-0.442,0.628-0.77,1.057-0.98     c0.429-0.212,0.848-0.317,1.256-0.317c0.582,0,1.059,0.078,1.432,0.234c0.373,0.156,0.667,0.372,0.881,0.648     c0.214,0.277,0.365,0.614,0.452,1.012s0.13,0.837,0.13,1.32v4.799h-2.175V76.46c0-0.645-0.104-1.125-0.314-1.441     c-0.209-0.317-0.569-0.476-1.08-0.476c-0.592,0-1.021,0.174-1.287,0.521c-0.266,0.348-0.398,0.918-0.398,1.713v4.09h-2.175     V70.091z"/>
			<path fill="#FFF" d="M136.638,77.485c0.031,0.685,0.209,1.186,0.536,1.502c0.327,0.317,0.797,0.476,1.409,0.476     c0.439,0,0.817-0.108,1.134-0.324c0.316-0.217,0.51-0.445,0.582-0.688h1.915c-0.306,0.926-0.776,1.595-1.409,2.008     c-0.633,0.412-1.399,0.618-2.297,0.618c-0.623,0-1.185-0.101-1.685-0.302c-0.5-0.201-0.924-0.482-1.271-0.845     s-0.615-0.795-0.804-1.298s-0.283-1.057-0.283-1.66c0-0.583,0.097-1.127,0.291-1.63c0.194-0.503,0.47-0.938,0.827-1.306     s0.784-0.656,1.279-0.867c0.495-0.212,1.044-0.317,1.647-0.317c0.674,0,1.261,0.128,1.761,0.385s0.912,0.602,1.233,1.034     c0.321,0.433,0.554,0.926,0.697,1.479c0.143,0.554,0.194,1.132,0.153,1.735H136.638z M140.177,76.128     c-0.102-0.544-0.283-0.956-0.544-1.238c-0.26-0.281-0.656-0.422-1.187-0.422c-0.347,0-0.636,0.058-0.865,0.173     c-0.23,0.116-0.414,0.26-0.552,0.431c-0.138,0.171-0.235,0.353-0.291,0.543c-0.056,0.191-0.089,0.362-0.1,0.514H140.177z"/>
			<path fill="#FFF" d="M147.835,71.856h-2.175v-1.766h2.175V71.856z M145.661,73.063h2.175v7.803h-2.175V73.063z"/>
			<path fill="#FFF" d="M151.512,73.063h2.067v1.087h0.047c0.275-0.442,0.633-0.77,1.072-0.98     c0.438-0.212,0.889-0.317,1.348-0.317c0.582,0,1.059,0.078,1.432,0.234s0.667,0.372,0.881,0.648     c0.215,0.277,0.365,0.614,0.452,1.012s0.13,0.837,0.13,1.32v4.799h-2.175V76.46c0-0.645-0.104-1.125-0.313-1.441     c-0.21-0.317-0.57-0.476-1.08-0.476c-0.593,0-1.021,0.174-1.287,0.521c-0.266,0.348-0.398,0.918-0.398,1.713v4.09h-2.175V73.063z     "/>
			<path fill="#FFF" d="M165.772,70.091h2.466l4.09,10.775h-2.497l-0.827-2.399h-4.09l-0.858,2.399h-2.436L165.772,70.091z      M165.542,76.701h2.834l-1.379-3.954h-0.03L165.542,76.701z"/>
			<path fill="#FFF" d="M175.009,70.091h2.175v4.06h0.046c0.276-0.442,0.628-0.77,1.058-0.98     c0.429-0.212,0.848-0.317,1.256-0.317c0.582,0,1.06,0.078,1.432,0.234c0.373,0.156,0.667,0.372,0.881,0.648     c0.215,0.277,0.365,0.614,0.452,1.012s0.13,0.837,0.13,1.32v4.799h-2.175V76.46c0-0.645-0.104-1.125-0.313-1.441     c-0.21-0.317-0.57-0.476-1.08-0.476c-0.593,0-1.021,0.174-1.287,0.521c-0.266,0.348-0.398,0.918-0.398,1.713v4.09h-2.175V70.091z     "/>
			<path fill="#FFF" d="M186.053,73.063h2.068v1.449h0.03c0.102-0.241,0.239-0.465,0.413-0.672     c0.174-0.206,0.373-0.382,0.598-0.528c0.225-0.146,0.468-0.259,0.728-0.339c0.261-0.081,0.523-0.121,0.789-0.121     c0.163,0,0.321,0.025,0.475,0.075v1.992c-0.102-0.02-0.225-0.037-0.367-0.053c-0.144-0.015-0.281-0.022-0.414-0.022     c-0.398,0-0.735,0.065-1.011,0.196s-0.498,0.31-0.666,0.536c-0.169,0.226-0.289,0.492-0.36,0.8     c-0.071,0.307-0.107,0.631-0.107,0.973v3.517h-2.175V73.063z"/>
			<path fill="#FFF" d="M201.493,73.713c-0.041-0.271-0.133-0.521-0.276-0.747c-0.143-0.227-0.321-0.425-0.536-0.596     c-0.214-0.171-0.457-0.305-0.728-0.4s-0.554-0.144-0.85-0.144c-0.542,0-1.001,0.104-1.379,0.31s-0.685,0.483-0.919,0.83     c-0.235,0.347-0.406,0.742-0.514,1.185c-0.106,0.443-0.16,0.9-0.16,1.373c0,0.453,0.054,0.894,0.16,1.321     c0.107,0.428,0.278,0.813,0.514,1.154c0.234,0.342,0.541,0.616,0.919,0.822s0.837,0.31,1.379,0.31     c0.735,0,1.31-0.224,1.723-0.672c0.414-0.447,0.667-1.028,0.759-1.743h2.328c-0.062,0.675-0.22,1.283-0.475,1.826     c-0.256,0.543-0.593,1.006-1.012,1.389s-0.908,0.677-1.47,0.883c-0.563,0.206-1.18,0.31-1.854,0.31     c-0.848,0-1.604-0.146-2.268-0.438c-0.664-0.292-1.226-0.689-1.685-1.192c-0.46-0.503-0.813-1.097-1.058-1.781     c-0.244-0.684-0.367-1.413-0.367-2.188c0-0.794,0.123-1.539,0.367-2.233c0.245-0.694,0.598-1.298,1.058-1.811     c0.459-0.514,1.021-0.915,1.685-1.207s1.42-0.438,2.268-0.438c0.602,0,1.172,0.086,1.708,0.257s1.016,0.42,1.439,0.747     s0.773,0.732,1.049,1.215c0.276,0.483,0.449,1.036,0.521,1.66H201.493z"/>
			<path fill="#FFF" d="M207.176,75.464c0.03-0.503,0.158-0.921,0.383-1.253s0.511-0.599,0.857-0.8     c0.348-0.201,0.735-0.345,1.165-0.431c0.429-0.085,0.867-0.128,1.316-0.128c0.398,0,0.802,0.028,1.211,0.083     c0.408,0.056,0.781,0.164,1.118,0.324c0.337,0.161,0.612,0.388,0.827,0.68c0.214,0.292,0.321,0.669,0.321,1.132v4.06     c0,0.353,0.021,0.689,0.062,1.011c0.04,0.322,0.112,0.563,0.214,0.725h-2.205c-0.041-0.121-0.074-0.244-0.1-0.37     c-0.026-0.125-0.044-0.254-0.054-0.385c-0.348,0.353-0.756,0.602-1.226,0.747s-0.95,0.219-1.439,0.219     c-0.378,0-0.73-0.048-1.058-0.143c-0.327-0.096-0.612-0.239-0.857-0.431c-0.245-0.19-0.437-0.433-0.574-0.725     c-0.138-0.291-0.207-0.639-0.207-1.041c0-0.442,0.076-0.808,0.229-1.094c0.153-0.287,0.357-0.516,0.613-0.687     c0.255-0.172,0.543-0.3,0.865-0.386c0.321-0.085,0.65-0.152,0.988-0.203c0.337-0.051,0.658-0.091,0.965-0.121     c0.306-0.03,0.579-0.075,0.819-0.136c0.239-0.061,0.432-0.148,0.574-0.264c0.143-0.116,0.215-0.284,0.215-0.506     c0-0.231-0.039-0.415-0.115-0.551s-0.179-0.241-0.307-0.317c-0.128-0.075-0.275-0.125-0.444-0.15     c-0.168-0.025-0.35-0.038-0.543-0.038c-0.419,0-0.754,0.091-1.004,0.271c-0.25,0.182-0.396,0.483-0.437,0.906H207.176z      M212.2,77.048c-0.092,0.081-0.207,0.144-0.345,0.188c-0.138,0.046-0.286,0.083-0.444,0.113s-0.327,0.056-0.506,0.076     c-0.179,0.02-0.35,0.045-0.513,0.075c-0.174,0.03-0.337,0.07-0.49,0.12c-0.153,0.051-0.289,0.119-0.406,0.204     c-0.117,0.086-0.212,0.196-0.283,0.332s-0.107,0.3-0.107,0.49c0,0.202,0.036,0.365,0.107,0.491s0.169,0.226,0.291,0.302     c0.123,0.075,0.266,0.128,0.429,0.158s0.332,0.045,0.506,0.045c0.429,0,0.761-0.07,0.995-0.211     c0.235-0.141,0.409-0.31,0.521-0.506s0.181-0.395,0.206-0.596s0.039-0.362,0.039-0.483V77.048z"/>
			<path fill="#FFF" d="M218.082,73.063h2.053v1.057h0.03c0.286-0.402,0.631-0.714,1.034-0.936     c0.403-0.221,0.865-0.332,1.386-0.332c0.5,0,0.958,0.099,1.371,0.294c0.414,0.196,0.728,0.531,0.942,1.004     c0.234-0.342,0.554-0.644,0.957-0.905s0.881-0.393,1.433-0.393c0.418,0,0.807,0.051,1.164,0.151s0.663,0.262,0.919,0.482     c0.255,0.222,0.454,0.511,0.598,0.868c0.143,0.357,0.214,0.787,0.214,1.29v5.222h-2.175v-4.422c0-0.262-0.011-0.508-0.03-0.739     c-0.021-0.231-0.077-0.433-0.169-0.604s-0.228-0.307-0.406-0.408c-0.179-0.1-0.421-0.15-0.728-0.15     c-0.306,0-0.554,0.058-0.742,0.174c-0.189,0.115-0.338,0.267-0.444,0.452c-0.107,0.187-0.179,0.397-0.215,0.634     c-0.036,0.237-0.054,0.476-0.054,0.717v4.347h-2.175v-4.377c0-0.221-0.006-0.447-0.016-0.679s-0.054-0.442-0.13-0.634     c-0.077-0.191-0.204-0.345-0.383-0.46c-0.179-0.116-0.442-0.174-0.789-0.174c-0.112,0-0.25,0.022-0.414,0.067     c-0.163,0.046-0.324,0.131-0.482,0.257s-0.293,0.308-0.405,0.544c-0.113,0.236-0.169,0.546-0.169,0.928v4.527h-2.175V73.063z"/>
			<path fill="#FFF" d="M233.858,73.063h2.068v0.996h0.03c0.266-0.422,0.603-0.729,1.011-0.92s0.858-0.287,1.348-0.287     c0.623,0,1.159,0.116,1.608,0.348s0.822,0.538,1.118,0.92c0.297,0.383,0.516,0.828,0.659,1.336     c0.143,0.508,0.215,1.039,0.215,1.592c0,0.523-0.072,1.026-0.215,1.51c-0.144,0.482-0.36,0.91-0.651,1.282     s-0.653,0.672-1.087,0.898c-0.435,0.226-0.942,0.339-1.524,0.339c-0.48,0-0.93-0.101-1.348-0.302     c-0.419-0.201-0.761-0.492-1.026-0.875h-0.031v3.713h-2.175V73.063z M237.856,79.463c0.357,0,0.656-0.07,0.896-0.212     c0.24-0.141,0.435-0.324,0.583-0.551c0.147-0.226,0.252-0.487,0.313-0.784s0.092-0.606,0.092-0.929c0-0.312-0.033-0.618-0.1-0.92     s-0.176-0.571-0.329-0.808s-0.35-0.428-0.59-0.573s-0.533-0.219-0.881-0.219c-0.357,0-0.656,0.073-0.896,0.219     c-0.24,0.146-0.435,0.334-0.582,0.565c-0.148,0.231-0.253,0.501-0.314,0.808s-0.092,0.616-0.092,0.928     c0,0.322,0.033,0.632,0.1,0.929s0.174,0.559,0.321,0.784c0.148,0.227,0.342,0.41,0.582,0.551     C237.2,79.393,237.499,79.463,237.856,79.463z"/>
			<path fill="#FFF" d="M252.592,80.866h-2.067v-1.087h-0.046c-0.275,0.443-0.634,0.77-1.072,0.981     c-0.439,0.211-0.889,0.316-1.348,0.316c-0.582,0-1.06-0.078-1.433-0.233c-0.373-0.156-0.666-0.372-0.881-0.649     c-0.215-0.276-0.365-0.613-0.452-1.011s-0.13-0.838-0.13-1.32v-4.8h2.175v4.407c0,0.644,0.104,1.124,0.314,1.441     c0.209,0.316,0.569,0.476,1.08,0.476c0.592,0,1.021-0.174,1.286-0.521c0.266-0.347,0.398-0.918,0.398-1.713v-4.09h2.175V80.866z"/>
			<path fill="#FFF" d="M257.892,78.331c0,0.231,0.049,0.43,0.146,0.596c0.098,0.166,0.223,0.302,0.376,0.407     c0.153,0.106,0.329,0.185,0.528,0.234c0.199,0.051,0.406,0.075,0.62,0.075c0.153,0,0.314-0.018,0.482-0.053     c0.169-0.035,0.322-0.091,0.46-0.166s0.253-0.176,0.345-0.302s0.138-0.284,0.138-0.476c0-0.16-0.057-0.299-0.169-0.415     c-0.112-0.115-0.273-0.219-0.482-0.309c-0.209-0.091-0.467-0.174-0.773-0.249c-0.307-0.076-0.653-0.153-1.041-0.234     c-0.317-0.07-0.626-0.153-0.927-0.249c-0.302-0.096-0.57-0.221-0.805-0.377c-0.235-0.156-0.424-0.353-0.566-0.589     c-0.144-0.236-0.215-0.525-0.215-0.868c0-0.492,0.1-0.902,0.299-1.229s0.462-0.583,0.789-0.77     c0.326-0.187,0.694-0.317,1.103-0.393s0.827-0.113,1.256-0.113c0.43,0,0.845,0.04,1.249,0.121     c0.403,0.08,0.763,0.216,1.079,0.407s0.58,0.445,0.789,0.762c0.209,0.317,0.335,0.717,0.376,1.2h-2.068     c-0.03-0.412-0.189-0.691-0.475-0.838c-0.286-0.146-0.623-0.219-1.011-0.219c-0.123,0-0.256,0.008-0.398,0.022     c-0.144,0.016-0.273,0.048-0.391,0.099c-0.118,0.051-0.218,0.123-0.299,0.219c-0.082,0.096-0.123,0.224-0.123,0.385     c0,0.191,0.071,0.347,0.215,0.468c0.143,0.121,0.329,0.219,0.56,0.294c0.229,0.076,0.492,0.144,0.788,0.204     c0.297,0.061,0.598,0.126,0.904,0.196c0.316,0.07,0.625,0.156,0.927,0.257c0.301,0.101,0.569,0.233,0.804,0.399     c0.235,0.166,0.424,0.372,0.567,0.619c0.143,0.246,0.214,0.551,0.214,0.913c0,0.513-0.104,0.943-0.313,1.29     c-0.21,0.347-0.482,0.626-0.82,0.838c-0.337,0.211-0.722,0.362-1.156,0.452c-0.434,0.091-0.876,0.136-1.325,0.136     c-0.459,0-0.908-0.045-1.348-0.136c-0.439-0.09-0.83-0.243-1.172-0.46c-0.342-0.216-0.623-0.5-0.843-0.853     s-0.339-0.785-0.359-1.298H257.892z"/>
		</g>
	</g>
	<rect x="92.314" y="70.091" fill="#FFF" width="10.749" height="10.75"/>
</g>
</svg>
